HIERARCHY
ROOT Hips
{
  OFFSET 40.9192 92.6879 18.85
  CHANNELS 6 Xposition Yposition Zposition Zrotation Xrotation Yrotation
  JOINT LeftUpLeg
  {
    OFFSET 8.64259 1.95398 -2.38835
    CHANNELS 3 Zrotation Xrotation Yrotation
    JOINT LeftLeg
    {
      OFFSET 43.7702 0 0
      CHANNELS 3 Zrotation Xrotation Yrotation
      JOINT LeftFoot
      {
        OFFSET 40.6238 0 0
        CHANNELS 3 Zrotation Xrotation Yrotation
        JOINT LeftToeBase
        {
          OFFSET 12.7242 0 0
          CHANNELS 3 Zrotation Xrotation Yrotation
          End Site
          {
            OFFSET 0 0 0
          }
        }
      }
    }
  }
  JOINT RightUpLeg
  {
    OFFSET -8.2249 1.95398 -2.59336
    CHANNELS 3 Zrotation Xrotation Yrotation
    JOINT RightLeg
    {
      OFFSET 43.5653 0 0
      CHANNELS 3 Zrotation Xrotation Yrotation
      JOINT RightFoot
      {
        OFFSET 40.6238 0 0
        CHANNELS 3 Zrotation Xrotation Yrotation
        JOINT RightToeBase
        {
          OFFSET 12.7242 0 0
          CHANNELS 3 Zrotation Xrotation Yrotation
          End Site
          {
            OFFSET 0 0 0
          }
        }
      }
    }
  }
  JOINT Spine
  {
    OFFSET 0.165834 0.87714 6.61349
    CHANNELS 3 Zrotation Xrotation Yrotation
    JOINT Spine1
    {
      OFFSET 7.38963 1.71661e-005 0
      CHANNELS 3 Zrotation Xrotation Yrotation
      JOINT Spine2
      {
        OFFSET 11.9445 1.14441e-005 0
        CHANNELS 3 Zrotation Xrotation Yrotation
        JOINT Spine3
        {
          OFFSET 14.7254 4.19617e-005 0
          CHANNELS 3 Zrotation Xrotation Yrotation
          JOINT Spine4
          {
            OFFSET 10.9679 0 0
            CHANNELS 3 Zrotation Xrotation Yrotation
            JOINT RightShoulder
            {
              OFFSET 2.46616 -1.6653 3.69651
              CHANNELS 3 Zrotation Xrotation Yrotation
              JOINT RightArm
              {
                OFFSET 13.0012 0 0
                CHANNELS 3 Zrotation Xrotation Yrotation
                JOINT RightForeArm
                {
                  OFFSET 28.7848 1.52588e-005 0
                  CHANNELS 3 Zrotation Xrotation Yrotation
                  JOINT RightHand
                  {
                    OFFSET 26.5688 1.52588e-005 0
                    CHANNELS 3 Zrotation Xrotation Yrotation
                    End Site
                    {
                      OFFSET 0 0 0
                    }
                  }
                }
              }
            }
            JOINT LeftShoulder
            {
              OFFSET 2.38034 -1.29275 -3.7523
              CHANNELS 3 Zrotation Xrotation Yrotation
              JOINT LeftArm
              {
                OFFSET 16.3182 6.10351e-005 0
                CHANNELS 3 Zrotation Xrotation Yrotation
                JOINT LeftForeArm
                {
                  OFFSET 27.0901 0 0
                  CHANNELS 3 Zrotation Xrotation Yrotation
                  JOINT LeftHand
                  {
                    OFFSET 24.5451 1.52588e-005 0
                    CHANNELS 3 Zrotation Xrotation Yrotation
                    End Site
                    {
                      OFFSET 0 0 0
                    }
                  }
                }
              }
            }
            JOINT Neck
            {
              OFFSET 5.0226 -0.0266342 0
              CHANNELS 3 Zrotation Xrotation Yrotation
              JOINT Head
              {
                OFFSET 6.69363 2.86102e-005 0
                CHANNELS 3 Zrotation Xrotation Yrotation
                End Site
                {
                  OFFSET 0 0 0
                }
              }
            }
          }
        }
      }
    }
  }
}
MOTION
Frames:	18
Frame Time:	0.0416667
-6.63337 94.9497 100.353 -85.0796 -87.3213 -86.281 -171.402 -0.244661 87.9089 -21.3963 14.5582 -3.72552 70.3588 8.87865 4.94299 34.0731 4.13065 1.47142 176.129 23.0353 91.1142 -21.6001 -1.11327 -0.445007 62.702 -2.68939 -1.57521 39.8069 0.315892 -7.48698 -0.564563 7.68797 -89.7241 11.5008 -0.99418 0.651136 -0.169894 -0.964547 0.694258 -22.7077 -1.1439 0.322211 -2.69507 -1.1439 0.322214 92.7755 -49.709 -96.6112 28.8351 -7.96914 13.1575 -9.70737 -28.85 -42.7085 -3.95061 -0.782662 5.0173 -96.8918 -45.4936 67.0055 -16.91 14.3389 -1.76709 6.76522 8.60885 -45.957 15.7372 1.28726 4.25486 8.09 2.26192 -3.03425 -0.713934 2.94246 4.54805 
-6.92455 93.8512 106.805 -75.9815 -89.0806 -77.5816 -170.922 -3.84173 88.6147 -22.2514 17.5624 -3.64211 70.5667 9.59821 6.56732 37.3011 6.71441 0.997 176.079 22.4106 90.7279 -6.97249 -5.04966 -0.46382 63.0329 -2.13664 -1.20996 46.5613 0.124519 -8.38474 -0.834843 7.74709 -89.7098 11.3851 -1.52573 0.731522 -0.2852 -1.49205 0.797964 -22.8272 -1.67503 0.239049 -2.8146 -1.67503 0.239044 93.2899 -50.2967 -95.7136 28.519 -7.58288 14.4818 -9.69407 -29.8105 -41.9472 -3.25877 -0.777983 5.67092 -96.8966 -44.9961 66.822 -14.9688 13.0954 -3.42434 7.98125 8.47994 -48.0644 16.9176 1.17796 3.08382 8.91923 2.07375 -3.93607 -0.679013 2.98574 5.5151 
-7.3228 92.7389 113.657 83.2889 -88.1168 81.598 -171.025 -6.14673 89.9132 -25.3488 21.9379 -2.51121 67.8007 7.9023 6.90823 44.4242 12.3463 0.88174 175.478 23.5635 90.1417 -5.17156 -5.84492 -0.0800169 64.523 -2.36993 -1.30234 49.7702 0.0044428 -8.75995 -1.15683 7.74674 -89.781 11.3886 -2.19965 0.657093 -0.280674 -2.1686 0.753304 -22.8308 -2.29539 -0.0347102 -2.81817 -2.2954 -0.0347178 93.6887 -51.0523 -94.9776 27.6747 -6.80109 15.7718 -10.2785 -29.9405 -41.6883 -1.8234 -0.705682 6.09139 -97.6669 -45.5751 65.849 -13.7672 12.2802 -3.68524 7.21066 7.04587 -49.2974 17.8327 1.37374 3.83765 9.17366 1.83077 -3.97797 -0.513278 2.77672 5.65762 
-7.83722 91.8384 120.919 118.34 -86.8907 118.459 -170.578 -8.09582 93.1717 -31.7892 24.7561 -0.378789 63.9026 4.85619 5.51393 49.9316 16.8746 1.99607 176.291 23.3671 91.6347 -12.8887 -4.14861 -0.282776 59.8781 -1.23757 -0.648123 46.7283 0.101348 -8.74797 -1.21721 7.89279 -90.0415 11.0919 -2.44209 0.15342 -0.576728 -2.43297 0.2608 -23.1296 -2.37523 -0.588047 -3.11698 -2.37522 -0.58805 93.5484 -51.3054 -95.1502 27.1583 -6.10187 16.343 -9.22742 -30.3205 -39.6158 -0.459931 -0.617474 6.23724 -98.0913 -46.3123 65.4735 -14.482 11.2984 -2.89423 8.13766 7.81816 -48.8427 17.2251 1.39569 4.2176 9.46467 1.99953 -3.50661 -1.02729 2.8416 5.86137 
-7.97209 91.2514 128.475 151.885 -87.1769 155.187 -169.816 -6.7617 96.9769 -40.4237 22.7349 0.937479 52.2216 -4.42442 -2.72341 53.1792 20.949 7.67283 176.793 25.5732 94.9312 -26.7792 -3.37681 0.272455 59.4534 -0.898976 -0.448981 39.5218 0.329582 -6.60809 -1.06501 7.96651 -90.461 10.9363 -2.33364 -0.696301 -0.732701 -2.36202 -0.592872 -23.2798 -2.01646 -1.36568 -3.26719 -2.01645 -1.36567 92.6959 -50.2265 -96.6397 27.4191 -5.24674 15.1709 -8.7917 -31.1843 -37.5469 0.417885 -0.57393 7.05295 -98.7202 -47.7046 65.0396 -16.3289 10.8573 -0.682586 6.85305 7.3815 -46.5051 18.3092 1.52322 4.45086 9.27194 2.74433 -2.50156 -1.69812 3.33948 5.85975 
-8.70824 90.9743 135.373 175.271 -86.457 178.726 -170.327 -0.999884 97.6789 -52.4226 22.1617 0.930694 40.4601 -11.728 -6.20736 39.9236 9.80492 16.6736 176.917 24.5316 96.0742 -35.71 -3.59937 0.0265918 66.0097 -2.90937 -1.5889 33.0998 0.309892 -3.52881 -0.902782 7.96471 -90.4306 10.9393 -1.99657 -0.667532 -0.730267 -2.02401 -0.578995 -23.2736 -1.70363 -1.23685 -3.26094 -1.70364 -1.23686 92.5219 -49.0905 -97.1197 29.0514 -5.35966 13.9109 -8.91982 -29.7931 -38.1399 0.554199 -0.544976 7.38551 -99.1423 -48.517 64.7126 -17.6333 12.579 1.32619 4.82998 7.30757 -42.85 17.0115 1.40309 4.35893 8.85145 2.72806 -1.60201 -2.40465 3.08601 4.73772 
-9.02478 92.0201 141.863 -172.295 -85.8995 -168.21 -170.553 7.38099 97.5752 -62.0616 16.0287 0.78072 46.5572 -7.16235 -3.57491 39.1366 8.87089 14.7364 177.431 19.1131 96.9936 -35.0301 -3.76046 -0.177126 69.2577 -4.22875 -2.23449 29.328 0.198032 -2.85382 -0.585793 8.00255 -90.4326 10.8652 -1.36622 -0.732403 -0.805167 -1.39712 -0.671563 -23.3427 -1.08295 -1.10917 -3.33001 -1.08295 -1.10916 92.2887 -48.5628 -97.586 29.9658 -6.2918 11.7282 -8.21765 -27.2319 -39.6872 -2.32247 -0.681424 5.73086 -99.8283 -49.5875 64.1025 -18.163 13.8284 2.21058 4.30355 9.04692 -39.1268 14.3248 1.12144 3.87914 9.09379 2.17049 -0.435139 -2.80952 2.27101 3.08668 
-9.63349 93.4242 148.337 -146.13 -85.512 -143.844 -169.808 13.9659 94.8862 -60.5102 14.7359 -0.713167 51.6896 -3.67371 -0.651455 42.1438 11.7123 13.0426 178.463 14.0207 96.1773 -32.854 -4.32943 -1.7636 70.9848 -4.98419 -2.56003 28.9545 0.136393 -2.00255 -0.245681 7.92897 -90.1742 11.0153 -0.569772 -0.292482 -0.655583 -0.582092 -0.267133 -23.1912 -0.455525 -0.450197 -3.17852 -0.455536 -0.450216 91.862 -47.5443 -98.4662 30.1819 -7.60469 8.97316 -9.05724 -25.8438 -43.5797 -4.68197 -0.780551 4.83296 -99.3536 -49.8546 64.8893 -21.0564 13.8221 3.80855 3.73142 10.103 -35.6468 13.8213 1.10433 4.01571 8.30328 2.17027 0.161036 -2.06446 2.17131 2.7005 
-10.0303 94.5215 154.569 -124.757 -84.4744 -123.171 -169.304 18.6639 93.0873 -51.0817 13.6014 -2.17311 57.9197 0.644691 1.64931 42.4661 12.2436 14.9308 178.622 8.59193 95.6817 -29.0521 -5.82282 -2.47818 71.4889 -5.23666 -2.66087 30.2438 0.15855 -1.60789 0.11251 7.82733 -90.0195 11.2192 0.214896 -0.0599857 -0.451779 0.212035 -0.0693959 -22.987 0.222978 0.00736549 -2.97436 0.222979 0.00735992 91.6706 -47.2581 -98.8291 29.1804 -8.60595 6.28406 -11.1213 -24.9358 -48.6695 -6.30627 -0.772139 3.25773 -98.6264 -49.6081 65.8606 -24.2497 13.8644 6.16098 2.37755 9.42975 -32.7021 12.8713 1.03409 4.01813 7.25446 2.03456 0.776306 -1.22215 1.92083 1.73701 
-10.1989 95.0203 160.859 -113.471 -83.7863 -112.572 -169.652 20.6681 91.675 -35.2326 8.1585 -3.08931 61.52 3.09281 1.94531 44.7927 14.4082 13.8199 177.78 3.5634 94.3989 -26.0184 -8.81392 -2.80763 72.2466 -5.52017 -2.75647 32.2794 0.308071 -3.9394 0.336621 7.77349 -89.8747 11.3265 0.728263 0.176715 -0.344285 0.735328 0.144477 -22.8807 0.641482 0.387423 -2.86803 0.641473 0.387412 91.7082 -46.3755 -98.96 28.0701 -9.47535 2.71333 -12.639 -23.5286 -53.0539 -7.75851 -0.831101 3.18385 -98.204 -49.4056 66.4073 -26.5735 14.1934 8.83975 1.82099 9.09714 -31.6052 11.0699 0.868571 3.75519 7.7981 2.16014 0.41582 -1.27168 2.11659 2.1302 
-9.85164 94.6803 167.028 -101.034 -81.9525 -99.7594 -170.453 21.4573 92.0876 -17.0187 3.86455 -3.22703 62.9657 3.9833 1.67177 45.2477 14.9226 14.2416 176.259 -0.565165 93.2822 -23.4995 -10.9088 -2.15925 73.682 -6.16523 -2.98718 33.5186 0.29651 -2.65237 0.657578 7.68978 -89.892 11.4946 1.35876 0.0765577 -0.175664 1.36082 0.0166658 -22.716 1.27292 0.481445 -2.70334 1.27292 0.481447 91.6298 -45.3235 -99.32 25.9298 -10.3942 -1.39662 -11.8979 -21.539 -55.352 -9.54436 -0.815991 2.25637 -98.1727 -49.848 66.6058 -28.2335 14.9813 10.9252 1.99676 10.7125 -30.8553 10.3303 0.804533 3.65965 8.80991 2.552 0.415514 -1.57403 2.5034 2.59131 
-9.35293 93.5986 173.539 -94.4616 -79.4461 -91.979 -171.819 23.4504 93.9535 -5.04723 7.03978 -2.37114 64.9021 5.0962 4.08826 46.3486 16.1352 14.9134 175.829 -4.49854 92.6831 -22.6989 -13.3853 -2.3796 75.6833 -7.31978 -3.42445 35.5552 0.360158 -3.68207 0.972419 7.6033 -89.9677 11.6698 1.94934 -0.139467 0.000273196 1.94133 -0.225162 -22.5462 1.9011 0.453056 -2.53355 1.90111 0.453057 91.1489 -44.6 -100.272 23.7137 -10.0878 -5.29465 -13.5168 -21.7599 -57.4534 -8.49334 -0.797326 2.46547 -97.4308 -50.101 67.7732 -29.7244 15.2162 12.7884 2.25606 11.6276 -30.5454 8.79433 0.685457 3.5453 9.49592 2.83533 0.0984361 -2.02537 2.8319 2.68339 
-9.01453 92.2626 180.088 -95.0013 -76.1803 -92.3688 -171.779 25.3142 95.2628 -3.59394 7.17134 -2.0752 66.8256 6.0598 4.18739 48.2097 17.8766 14.3942 176.343 -6.4507 91.7381 -27.5117 -15.3744 -4.46989 76.4844 -7.91919 -3.65519 39.9954 0.380988 -5.19111 1.24908 7.66095 -89.8782 11.5546 2.54196 -0.0186712 -0.113846 2.53867 -0.13061 -22.6677 2.42998 0.74661 -2.65504 2.42999 0.746612 90.6846 -44.483 -101.062 22.0884 -9.38846 -9.16679 -15.1426 -23.1222 -57.8768 -9.03569 -0.853481 2.69167 -95.9678 -50.5443 70.0501 -30.2975 14.9753 13.7589 2.79372 12.5358 -30.5226 8.06237 0.711928 4.39776 10.1683 3.28999 -0.601515 -1.92849 3.42233 2.88215 
-8.44796 91.2212 187.55 -98.8396 -74.3 -97.5428 -171.167 24.0906 94.2268 -7.71487 6.26271 -2.58912 65.0376 6.57971 4.96683 47.6442 16.7442 11.46 176.514 -6.74155 89.2285 -37.1389 -16.4932 -7.4132 72.3365 -6.14145 -3.05323 47.9222 0.365302 -5.74112 1.38525 7.76613 -89.6563 11.3394 2.91679 0.392678 -0.328314 2.93125 0.263807 -22.8858 2.66384 1.25172 -2.87318 2.66384 1.25172 90.5782 -44.5951 -101.209 21.8021 -8.9373 -9.72653 -16.028 -23.6257 -57.7656 -9.35408 -0.903262 3.02627 -96.1295 -50.7256 69.87 -30.6288 14.4788 14.4859 2.7031 13.0824 -29.2021 7.95485 0.733693 4.73179 10.1821 3.44694 -1.20879 -2.15186 3.70144 3.26203 
-7.98423 91.3166 195.657 -99.8331 -75.3211 -101.972 -170.364 26.2516 90.6244 -20.0583 8.83025 -4.14779 61.9744 2.81376 3.72578 42.3629 11.6938 10.7267 177.199 -3.28952 85.4786 -47.7675 -14.9052 -8.99679 58.4893 -1.03079 -0.443241 50.2065 0.902023 -0.762938 1.22024 7.73315 -89.2182 11.3915 2.79289 1.27649 -0.276997 2.84635 1.15225 -22.8243 2.28016 2.05704 -2.81169 2.28016 2.05703 90.8522 -46.9288 -100.203 20.9136 -8.93978 -7.31449 -16.0092 -23.9951 -57.6392 -9.69113 -0.953856 3.39621 -96.9768 -50.9669 68.713 -29.3367 15.2316 13.8063 1.61344 13.8784 -26.8914 7.16995 0.685167 4.8977 9.22337 2.92748 -2.25917 -2.36336 3.38219 3.36253 
-7.37603 91.4298 203.017 -106.438 -78.4436 -109.719 -170.041 24.7347 88.0523 -27.3941 11.4552 -4.92898 66.3156 6.92544 6.40824 41.2244 10.1191 4.86029 179.638 4.25149 84.8702 -62.392 -6.38034 -7.183 41.1341 3.87701 3.79276 35.3405 0.56372 -5.00959 0.880604 7.80003 -89.0672 11.256 2.18671 1.6409 -0.414021 2.2568 1.54305 -22.9496 1.59258 2.22213 -2.937 1.59259 2.22214 90.5105 -47.6117 -100.587 23.0075 -8.8879 -2.55721 -14.991 -23.7705 -55.4585 -10.3511 -0.980147 3.39704 -97.6388 -49.6437 67.3176 -28.0829 15.3606 11.0755 1.01422 14.3102 -24.9392 5.87922 0.552604 4.55393 7.88409 2.26666 -2.82325 -1.85803 2.82463 3.20886 
-6.63765 92.5236 209.553 -110.587 -80.3526 -113.757 -169.842 20.2224 87.5006 -27.1648 12.6051 -5.4448 69.1154 9.48549 7.13225 41.1819 10.0752 4.68912 -178.699 15.5318 87.1937 -75.4474 1.18804 -5.1876 44.9998 1.47176 1.59994 31.7054 0.499427 -9.57117 0.515251 7.868 -89.1232 11.1246 1.43271 1.60558 -0.546466 1.50197 1.54097 -23.0765 0.884027 1.96183 -3.06383 0.884039 1.96183 90.7521 -48.2339 -100.064 23.4372 -9.90351 -0.66965 -12.7169 -26.0244 -51.9632 -8.09986 -0.870396 3.22132 -98.5122 -48.925 65.7865 -26.2892 15.1053 8.73658 2.01419 14.1022 -27.3559 7.51448 0.792534 5.74102 7.88319 2.60262 -2.82142 -1.74933 3.17207 3.76802 
-5.67607 94.0328 216.009 -113.95 -82.9122 -115.616 -170.669 15.0577 87.9307 -23.8517 13.9505 -4.6245 70.2039 10.5791 6.90309 42.4588 11.2182 5.35544 -179.739 25.1551 89.6637 -79.6628 3.58622 -3.53377 55.9638 -2.22053 -1.39038 37.1425 0.341904 -8.69669 0.18685 7.9015 -89.4055 11.0664 0.64772 1.12052 -0.60489 0.696406 1.09092 -23.1365 0.281047 1.26337 -3.12387 0.281038 1.26336 91.1153 -48.7842 -99.3739 24.167 -10.0303 2.24336 -12.1323 -27.7276 -49.8646 -5.40902 -0.788074 3.67113 -99.5473 -48.9516 64.2776 -22.1333 16.3268 4.34413 1.66876 13.3534 -29.3821 11.2643 1.0138 4.84625 7.43888 2.61825 -1.96192 -0.741769 3.05814 3.76008 
